# xmcd
#
# Track frame offsets:
#	150
#	20552
#	36520
#	55904
#
# Disc length: 1179 seconds
#
# Revision: 1
# Processed by: cddbd v1.5.1PL2 Copyright (c) Steve Scherf et al.
# Submitted via: audiograbber 1.83.01
#
DISCID=31049904
DTITLE=bluecern - live im stadtkeller luzern
DYEAR=1900
DGENRE=
TTITLE0=chicken shack
TTITLE1=all through the night
TTITLE2=if you love me
TTITLE3=bright side of the road
EXTD=
EXTT0=
EXTT1=
EXTT2=
EXTT3=
PLAYORDER=
